Coordinates
version=1
nRows=19
nColumns=33
inDegrees=yes

Units are S.I. units (second, meters, Newtons, ...)
Angles are in degrees.

endheader
time	ground_thorax_rot_x	ground_thorax_rot_y	ground_thorax_rot_z	ground_thorax_tx	ground_thorax_ty	ground_thorax_tz	clav_prot_r	clav_elev_r	scapula_abduction_r	scapula_elevation_r	scapula_upward_rot_r	scapula_winging_r	shoulder_elv_r	plane_of_elev_r	axial_rot_r	elbow_flexion_r	pro_sup_r	wrist_flex_r	wrist_dev_r	clav_prot_l	clav_elev_l	scapula_abduction_l	scapula_elevation_l	scapula_upward_rot_l	scapula_winging_l	shoulder_elv_l	plane_of_elev_l	axial_rot_l	elbow_flexion_l	pro_sup_l	wrist_flex_l	wrist_dev_l
      0.57000000	      1.48839722	      4.17344927	     13.07032730	     -0.12165162	      1.03578911	      0.03169826	      5.11016256	     11.22811056	     20.89181110	      6.51843232	     24.42401707	    -11.52175633	     -1.12029847	    -71.80875339	     56.48509818	     43.42243001	    -40.91289442	     70.00000021	    -24.99999983	     11.08285664	     -3.09239916	    -16.12952890	    -22.09204543	    -42.29957598	     -0.70963299	     59.00568361	    -37.91206677	     -1.62604885	     58.11677692	     20.82300694	      0.22331100	    -24.99999983
      0.58000000	      1.51468142	      4.13893950	     13.04731822	     -0.12164027	      1.03594315	      0.03163331	      5.11026509	     11.20030581	     20.86072630	      6.50861885	     24.38128427	    -11.50205594	     -1.17266432	    -71.79131398	     56.51055027	     43.46567591	    -40.90536942	     70.00000021	    -24.99999983	     11.07167704	     -3.11899687	    -16.12375807	    -22.08060022	    -42.32986839	     -0.71155974	     58.96235250	    -37.90351536	     -1.67603376	     58.14668661	     20.83420534	      0.22424965	    -24.99999983
      0.59000000	      1.47297342	      4.24362215	     13.11845724	     -0.12199289	      1.03569522	      0.03161535	      5.16726505	     11.22753625	     20.84068878	      6.57684404	     24.23748572	    -11.48770911	     -1.30151172	    -71.68043717	     56.63095398	     43.57568729	    -40.80591647	     70.00000021	    -24.99999983	     11.20628876	     -3.12667541	    -16.35964674	    -22.06579053	    -42.33039987	     -0.60745424	     59.09839367	    -38.06071052	     -2.20230624	     58.48290603	     21.07033794	      0.18847112	    -24.99999983
      0.60000000	      1.48885092	      4.19773436	     13.13867847	     -0.12204151	      1.03564963	      0.03154298	      5.15950446	     11.20474173	     20.81124628	      6.56626632	     24.21214087	    -11.47393193	     -1.32978257	    -71.66267267	     56.63832104	     43.58930731	    -40.79500723	     70.00000021	    -24.99999983	     11.19760556	     -3.15229938	    -16.34794519	    -22.04500789	    -42.33785942	     -0.60784745	     59.07400180	    -38.03244755	     -2.22562062	     58.50264647	     21.08057020	      0.18744992	    -24.99999983
      0.61000000	      1.50653551	      4.16223746	     13.17689420	     -0.12210431	      1.03556707	      0.03148482	      5.15262693	     11.17186362	     20.78890482	      6.54619082	     24.18932367	    -11.46296735	     -1.36339321	    -71.62527380	     56.65024278	     43.60594535	    -40.77721952	     70.00000021	    -24.99999983	     11.18904787	     -3.18567275	    -16.33538178	    -22.01586933	    -42.34297188	     -0.61176160	     59.04729616	    -37.99174738	     -2.25685979	     58.52542697	     21.09420678	      0.18696317	    -24.99999983
      0.62000000	      1.46997305	      4.27952436	     13.31326003	     -0.12236367	      1.03581988	      0.03141600	      5.21841327	     11.00984404	     20.70664843	      6.50693813	     23.88490426	    -11.39960941	     -1.49593706	    -71.31334119	     56.78020717	     43.05050916	    -40.38941671	     70.00000021	    -24.99999983	     11.27448901	     -3.31646888	    -16.48219607	    -21.87075566	    -42.31235657	     -0.52622687	     59.20557254	    -38.00319851	     -2.69032011	     58.36689244	     21.55201456	      0.16274743	    -24.99999983
      0.63000000	      1.46413436	      4.23224995	     13.36656450	     -0.12237041	      1.03548302	      0.03133296	      5.20921169	     10.99572188	     20.69600780	      6.49457392	     23.88797595	    -11.39643489	     -1.50759900	    -71.28218341	     56.78160980	     43.06181776	    -40.37936646	     70.00000021	    -24.99999983	     11.27337418	     -3.33970758	    -16.47577776	    -21.84015793	    -42.29272718	     -0.52382478	     59.20580681	    -37.95378435	     -2.69677431	     58.39564254	     21.55899162	      0.15991763	    -24.99999983
      0.64000000	      1.45755142	      4.19770274	     13.43352761	     -0.12243710	      1.03521476	      0.03122066	      5.19621335	     10.95697324	     20.68886799	      6.45986344	     23.89345213	    -11.39149609	     -1.53193602	    -71.19616744	     56.78980767	     43.06926330	    -40.35075634	     70.00000021	    -24.99999983	     11.26497039	     -3.38392132	    -16.45912545	    -21.79392539	    -42.28522957	     -0.52539031	     59.18405916	    -37.88454675	     -2.72193059	     58.42510023	     21.58504393	      0.15728495	    -24.99999983
      0.65000000	      1.44166244	      4.16519389	     13.51146751	     -0.12251797	      1.03486871	      0.03112296	      5.18699540	     10.92240019	     20.69725491	      6.42813110	     23.90017268	    -11.39242166	     -1.54145729	    -71.11364246	     56.79712753	     43.04410798	    -40.32263217	     70.00000021	    -24.99999983	     11.26823107	     -3.42702203	    -16.45503811	    -21.73725832	    -42.25226538	     -0.51852669	     59.19201576	    -37.80098542	     -2.74063737	     58.43654259	     21.61431273	      0.15478403	    -24.99999983
      0.66000000	      1.21774550	      4.17447667	     13.48922170	     -0.12249200	      1.03509837	      0.03105540	      5.03296266	     10.89144217	     20.36181451	      6.42358333	     23.85261728	    -11.27842919	     -1.95700242	    -70.03093368	     57.42313439	     41.57838179	    -39.34205850	     70.00000021	    -24.99999983	     11.30739900	     -3.47060423	    -16.49284276	    -21.63887286	    -42.13273979	     -0.47492043	     59.41216537	    -37.66246773	     -2.65138248	     58.29678833	     23.09616418	     -0.02485797	    -24.99999983
      0.67000000	      1.28738231	      4.17157761	     13.50028213	     -0.12260192	      1.03479183	      0.03088501	      5.02204942	     10.85665755	     20.40115769	      6.37542929	     23.91010651	    -11.29563315	     -1.86027931	    -69.98894088	     57.37695308	     41.45690380	    -39.36875392	     70.00000021	    -24.99999983	     11.34527227	     -3.56785290	    -16.54446449	    -21.51359357	    -42.06761675	     -0.42891936	     59.37548718	    -37.41042952	     -2.80102530	     58.23585655	     23.25209097	     -0.02292263	    -24.99999983
      0.68000000	      1.26073240	      4.14210282	     13.62044800	     -0.12262303	      1.03435632	      0.03077651	      5.01203518	     10.82972740	     20.41873789	      6.34339470	     23.93890519	    -11.30224318	     -1.85893089	    -69.91999144	     57.37421374	     41.47447634	    -39.36469255	     70.00000021	    -24.99999983	     11.34850960	     -3.61637037	    -16.53815135	    -21.44681348	    -42.02419414	     -0.42023891	     59.38410486	    -37.31104345	     -2.80889928	     58.24871133	     23.26425861	     -0.02524687	    -24.99999983
      0.69000000	      1.25177701	      4.11304584	     13.57076179	     -0.12286115	      1.03432716	      0.03071981	      5.05888207	     10.69115705	     20.55068425	      6.22389860	     23.94082360	    -11.33495500	     -1.81218445	    -69.69941021	     57.43115044	     41.24938235	    -39.34023056	     70.00000021	    -24.99999983	     11.42258299	     -3.78397598	    -16.64552858	    -21.23541946	    -41.92223436	     -0.33511317	     59.42494675	    -37.01884497	     -2.90892253	     57.92395977	     23.43500149	     -0.01652012	    -24.99999983
      0.70000000	      1.22482824	      4.07895249	     13.70489891	     -0.12282111	      1.03385123	      0.03062100	      5.04773948	     10.67060850	     20.56568543	      6.19558795	     23.97464235	    -11.34175337	     -1.79744950	    -69.64232952	     57.42126063	     41.24856293	    -39.33947959	     70.00000021	    -24.99999983	     11.42389733	     -3.82667658	    -16.63524813	    -21.17266367	    -41.87535385	     -0.32416956	     59.43395477	    -36.91476950	     -2.91199179	     57.96093925	     23.43790107	     -0.02049991	    -24.99999983
      0.71000000	      1.24278468	      4.06022037	     13.63698420	     -0.12301578	      1.03391826	      0.03032832	      5.10171984	     10.51117786	     20.71829149	      6.05975857	     23.97331031	    -11.38181428	     -1.70902773	    -69.40449123	     57.52862402	     40.84951559	    -39.29575475	     70.00000021	    -24.99999983	     11.49563905	     -3.99389690	    -16.74812778	    -20.97743807	    -41.80674864	     -0.24723170	     59.41786481	    -36.56375463	     -3.01712544	     57.73590868	     23.58637723	     -0.03445807	    -24.99999983
      0.72000000	      1.21383739	      4.02374090	     13.76520038	     -0.12295700	      1.03344897	      0.03032838	      5.09261541	     10.49254005	     20.73465392	      6.03329393	     24.00610067	    -11.38707342	     -1.70086976	    -69.34519747	     57.52668046	     40.85649346	    -39.29216053	     70.00000021	    -24.99999983	     11.49958449	     -4.03273214	    -16.74219838	    -20.91897129	    -41.76129919	     -0.23610150	     59.43257038	    -36.47028756	     -3.01672551	     57.76641034	     23.58799075	     -0.03974666	    -24.99999983
      0.73000000	      1.19893937	      4.02995695	     13.72056080	     -0.12316013	      1.03349178	      0.03013660	      5.16736303	     10.33965669	     20.89834361	      5.91201216	     23.97532653	    -11.42576429	     -1.67533303	    -69.05074418	     57.82947213	     40.42281204	    -39.18303839	     70.00000021	    -24.99999983	     11.59662283	     -4.19156641	    -16.91074669	    -20.75138037	    -41.73813951	     -0.14425036	     59.45090796	    -36.15058221	     -3.07750326	     57.55224920	     23.75511723	     -0.13580987	    -24.99999983
      0.74000000	      1.16072469	      3.98705462	     13.82293831	     -0.12303253	      1.03306497	      0.03004941	      5.15621476	     10.33011041	     20.91301414	      5.89145853	     24.01408100	    -11.43323771	     -1.65463316	    -68.99992675	     57.82239002	     40.42084262	    -39.18276682	     70.00000021	    -24.99999983	     11.60121112	     -4.22214062	    -16.91181416	    -20.70904288	    -41.71039989	     -0.13368991	     59.45805752	    -36.08153177	     -3.08525469	     57.57792067	     23.75770894	     -0.14247150	    -24.99999983
      0.75000000	      1.13366053	      3.96524306	     13.75961100	     -0.12320697	      1.03293089	      0.02992079	      5.21300010	     10.22728109	     21.05391673	      5.80293247	     24.01472647	    -11.47053539	     -1.57024043	    -68.73862774	     58.14678999	     40.11113983	    -39.08120990	     70.00000021	    -24.99999983	     11.72521156	     -4.34843226	    -17.14825611	    -20.60552787	    -41.76255900	     -0.02608155	     59.51420194	    -35.85804119	     -3.21544394	     57.50875105	     23.91061234	     -0.33135986	    -24.99999983
